<svg width="21" height="49" viewBox="0 0 21 49" fill="none" xmlns="http://www.w3.org/2000/svg">
<path d="M9.35879 47.7499C14.2964 35.8048 15.413 26.7068 8.88293 8.70947" stroke="white" stroke-width="1.27416" stroke-linecap="round"/>
<path d="M12.4259 41.025C14.0477 38.0018 17.8142 35.8605 20.03 36.1094C17.071 39.6235 14.3608 40.9218 12.4259 41.025Z" fill="white" stroke="white" stroke-width="0.63708"/>
<path d="M9.83667 48.0685C11.4584 45.0453 15.2658 42.8683 17.4817 43.1172C14.5226 46.6313 11.7715 47.9653 9.83667 48.0685Z" fill="white" stroke="white" stroke-width="0.63708"/>
<path d="M11.5003 41.0033C11.4116 37.5737 9.01067 33.9672 6.91963 33.1929C7.98198 37.6624 9.81865 40.0409 11.5003 41.0033Z" fill="white" stroke="white" stroke-width="0.63708"/>
<path d="M9.04036 47.9092C9.21151 44.4828 7.0872 40.7173 5.06077 39.7869C5.78176 44.324 7.43633 46.8223 9.04036 47.9092Z" fill="white" stroke="white" stroke-width="0.63708"/>
<path d="M13.2796 35.1281C12.556 31.7745 9.52741 28.6762 7.329 28.3034C9.20233 32.4981 11.4485 34.4944 13.2796 35.1281Z" fill="white" stroke="white" stroke-width="0.63708"/>
<path d="M13.3426 35.4138C14.577 32.2128 18.0489 29.621 20.2786 29.5933C17.778 33.4472 15.2497 35.0715 13.3426 35.4138Z" fill="white" stroke="white" stroke-width="0.63708"/>
<path d="M13.7672 28.8139C14.4676 25.4554 17.4746 22.3363 19.6704 21.9482C17.8261 26.1558 15.5938 28.1677 13.7672 28.8139Z" fill="white" stroke="white" stroke-width="0.63708"/>
<path d="M13.6604 28.9456C12.194 25.8441 8.54085 23.5146 6.31522 23.6509C9.09239 27.3105 11.7333 28.7445 13.6604 28.9456Z" fill="white" stroke="white" stroke-width="0.63708"/>
<path d="M13.1687 22.7998C13.2204 19.3695 15.5822 15.7373 17.6648 14.9404C16.6508 19.4211 14.8399 21.8193 13.1687 22.7998Z" fill="white" stroke="white" stroke-width="0.63708"/>
<path d="M12.9931 22.9426C11.7365 19.7502 8.24659 17.1827 6.01683 17.1704C8.54408 21.0068 11.0836 22.6135 12.9931 22.9426Z" fill="white" stroke="white" stroke-width="0.63708"/>
<path d="M11.3253 15.9079C11.2865 12.4773 13.5517 8.78411 15.6125 7.93262C14.7171 12.4385 12.9701 14.8836 11.3253 15.9079Z" fill="white" stroke="white" stroke-width="0.63708"/>
<path d="M11.4308 15.813C9.63416 12.8903 5.74831 10.9741 3.5509 11.3527C6.7114 14.6869 9.49321 15.8237 11.4308 15.813Z" fill="white" stroke="white" stroke-width="0.63708"/>
<path d="M9.57094 9.35667C8.74023 6.02801 10.0905 1.9112 11.8987 0.606445C12.0689 5.1973 10.9344 7.98 9.57094 9.35667Z" fill="white" stroke="white" stroke-width="0.63708"/>
<path d="M9.2013 9.50663C6.92551 6.93933 2.76646 5.72522 0.667878 6.47883C4.35817 9.21508 7.29485 9.85278 9.2013 9.50663Z" fill="white" stroke="white" stroke-width="0.63708"/>
<path d="M9.03943 8.68951C8.60389 5.28652 5.85006 1.94169 3.69136 1.3831C5.20084 5.72205 7.26892 7.90234 9.03943 8.68951Z" fill="white" stroke="white" stroke-width="0.63708"/>
</svg>
