<svg width="21" height="49" viewBox="0 0 21 49" fill="none" xmlns="http://www.w3.org/2000/svg">
<path d="M11.5108 47.7499C6.57321 35.8048 5.45667 26.7068 11.9867 8.70947" stroke="white" stroke-width="1.27416" stroke-linecap="round"/>
<path d="M8.44398 41.025C6.82222 38.0018 3.05571 35.8605 0.839844 36.1094C3.79892 39.6235 6.50911 40.9218 8.44398 41.025Z" fill="white" stroke="white" stroke-width="0.63708"/>
<path d="M11.0332 48.0685C9.41144 45.0453 5.60405 42.8683 3.38818 43.1172C6.34726 46.6313 9.09834 47.9653 11.0332 48.0685Z" fill="white" stroke="white" stroke-width="0.63708"/>
<path d="M9.36953 41.0033C9.45823 37.5737 11.8592 33.9672 13.9502 33.1929C12.8879 37.6624 11.0512 40.0409 9.36953 41.0033Z" fill="white" stroke="white" stroke-width="0.63708"/>
<path d="M11.8295 47.9092C11.6584 44.4828 13.7827 40.7173 15.8091 39.7869C15.0881 44.324 13.4335 46.8223 11.8295 47.9092Z" fill="white" stroke="white" stroke-width="0.63708"/>
<path d="M7.59005 35.1281C8.31367 31.7745 11.3422 28.6762 13.5406 28.3034C11.6673 32.4981 9.42114 34.4944 7.59005 35.1281Z" fill="white" stroke="white" stroke-width="0.63708"/>
<path d="M7.52728 35.4138C6.29289 32.2128 2.82093 29.621 0.591309 29.5933C3.09184 33.4472 5.62014 35.0715 7.52728 35.4138Z" fill="white" stroke="white" stroke-width="0.63708"/>
<path d="M7.10269 28.8139C6.40228 25.4554 3.39524 22.3363 1.19946 21.9482C3.04373 26.1558 5.27603 28.1677 7.10269 28.8139Z" fill="white" stroke="white" stroke-width="0.63708"/>
<path d="M7.20918 28.9456C8.67563 25.8441 12.3288 23.5146 14.5544 23.6509C11.7772 27.3105 9.13633 28.7445 7.20918 28.9456Z" fill="white" stroke="white" stroke-width="0.63708"/>
<path d="M7.70094 22.7998C7.64927 19.3695 5.28738 15.7373 3.20483 14.9404C4.21886 19.4211 6.02973 21.8193 7.70094 22.7998Z" fill="white" stroke="white" stroke-width="0.63708"/>
<path d="M7.87655 22.9426C9.13316 19.7502 12.623 17.1827 14.8528 17.1704C12.3255 21.0068 9.78602 22.6135 7.87655 22.9426Z" fill="white" stroke="white" stroke-width="0.63708"/>
<path d="M9.54434 15.9079C9.58316 12.4773 7.31789 8.78411 5.25708 7.93262C6.15258 12.4385 7.89957 14.8836 9.54434 15.9079Z" fill="white" stroke="white" stroke-width="0.63708"/>
<path d="M9.43883 15.813C11.2355 12.8903 15.1213 10.9741 17.3187 11.3527C14.1582 14.6869 11.3764 15.8237 9.43883 15.813Z" fill="white" stroke="white" stroke-width="0.63708"/>
<path d="M11.2987 9.35667C12.1294 6.02801 10.7791 1.9112 8.97095 0.606445C8.80069 5.1973 9.93521 7.98 11.2987 9.35667Z" fill="white" stroke="white" stroke-width="0.63708"/>
<path d="M11.6686 9.50663C13.9444 6.93933 18.1034 5.72522 20.202 6.47883C16.5117 9.21508 13.575 9.85278 11.6686 9.50663Z" fill="white" stroke="white" stroke-width="0.63708"/>
<path d="M11.8302 8.68951C12.2657 5.28652 15.0196 1.94169 17.1783 1.3831C15.6688 5.72205 13.6007 7.90234 11.8302 8.68951Z" fill="white" stroke="white" stroke-width="0.63708"/>
</svg>
