<svg width="1379" height="214" viewBox="0 0 1379 214" fill="none" xmlns="http://www.w3.org/2000/svg">
<g clip-path="url(#clip0_29_4382)">
<path d="M122.877 249.587V6.34755H289.39V50.4245H173.484V112.132H273.065V156.209H173.484V249.587H122.877ZM398.085 253.505C378.93 253.505 361.844 249.478 346.825 241.425C331.806 233.371 319.943 222.379 311.237 208.448C302.748 194.3 298.504 178.302 298.504 160.454V6.34755H349.11V157.189C349.11 166.766 351.178 175.472 355.314 183.308C359.667 190.927 365.544 196.912 372.945 201.266C380.345 205.619 388.725 207.795 398.085 207.795C407.662 207.795 416.042 205.619 423.225 201.266C430.625 196.912 436.394 190.927 440.529 183.308C444.882 175.472 447.059 166.766 447.059 157.189V6.34755H497.666V160.454C497.666 178.302 493.313 194.3 484.606 208.448C476.117 222.379 464.363 233.371 449.345 241.425C434.326 249.478 417.239 253.505 398.085 253.505ZM524.645 249.587V6.34755H563.498L694.096 178.411L673.201 183.308V6.34755H723.808V249.587H684.628L556.315 76.2177L575.252 71.3202V249.587H524.645ZM753.906 249.587V6.34755H833.245C859.582 6.34755 882.437 11.5715 901.809 22.0194C921.181 32.4672 936.2 46.833 946.865 65.1168C957.531 83.4006 962.864 104.296 962.864 127.804C962.864 151.312 957.531 172.316 946.865 190.818C936.2 209.101 921.181 223.467 901.809 233.915C882.437 244.363 859.582 249.587 833.245 249.587H753.906ZM804.513 205.51H834.551C850.44 205.51 864.153 202.354 875.689 196.042C887.226 189.512 896.15 180.479 902.462 168.942C908.992 157.189 912.257 143.476 912.257 127.804C912.257 111.915 908.992 98.2017 902.462 86.6655C896.15 75.1293 887.226 66.2051 875.689 59.8929C864.153 53.5806 850.44 50.4245 834.551 50.4245H804.513V205.51ZM982.211 249.587V6.34755H1032.82V205.51H1135.66V249.587H982.211ZM1181.38 249.587V143.476L1100.41 6.34755H1158.2L1216.97 109.52H1196.4L1254.85 6.34755H1312.64L1231.99 143.149V249.587H1181.38Z" fill="#F0F4E8"/>
<mask id="mask0_29_4382" style="mask-type:alpha" maskUnits="userSpaceOnUse" x="122" y="6" width="1191" height="248">
<path d="M122.877 249.587V6.34755H289.39V50.4245H173.484V112.132H273.065V156.209H173.484V249.587H122.877ZM398.085 253.505C378.93 253.505 361.844 249.478 346.825 241.425C331.806 233.371 319.943 222.379 311.237 208.448C302.748 194.3 298.504 178.302 298.504 160.454V6.34755H349.11V157.189C349.11 166.766 351.178 175.472 355.314 183.308C359.667 190.927 365.544 196.912 372.945 201.266C380.345 205.619 388.725 207.795 398.085 207.795C407.662 207.795 416.042 205.619 423.225 201.266C430.625 196.912 436.394 190.927 440.529 183.308C444.882 175.472 447.059 166.766 447.059 157.189V6.34755H497.666V160.454C497.666 178.302 493.313 194.3 484.606 208.448C476.117 222.379 464.363 233.371 449.345 241.425C434.326 249.478 417.239 253.505 398.085 253.505ZM524.645 249.587V6.34755H563.498L694.096 178.411L673.201 183.308V6.34755H723.808V249.587H684.628L556.315 76.2177L575.252 71.3202V249.587H524.645ZM753.906 249.587V6.34755H833.245C859.582 6.34755 882.437 11.5715 901.809 22.0194C921.181 32.4672 936.2 46.833 946.865 65.1168C957.531 83.4006 962.864 104.296 962.864 127.804C962.864 151.312 957.531 172.316 946.865 190.818C936.2 209.101 921.181 223.467 901.809 233.915C882.437 244.363 859.582 249.587 833.245 249.587H753.906ZM804.513 205.51H834.551C850.44 205.51 864.153 202.354 875.689 196.042C887.226 189.512 896.15 180.479 902.462 168.942C908.992 157.189 912.257 143.476 912.257 127.804C912.257 111.915 908.992 98.2017 902.462 86.6655C896.15 75.1293 887.226 66.2051 875.689 59.8929C864.153 53.5806 850.44 50.4245 834.551 50.4245H804.513V205.51ZM982.211 249.587V6.34755H1032.82V205.51H1135.66V249.587H982.211ZM1181.38 249.587V143.476L1100.41 6.34755H1158.2L1216.97 109.52H1196.4L1254.85 6.34755H1312.64L1231.99 143.149V249.587H1181.38Z" fill="#F0F4E8"/>
</mask>
<g mask="url(#mask0_29_4382)">
<g filter="url(#filter0_f_29_4382)">
<rect x="255.487" y="-185.288" width="814.063" height="814.063" rx="407.031" fill="white"/>
</g>
</g>
</g>
<defs>
<filter id="filter0_f_29_4382" x="37.823" y="-402.951" width="1249.39" height="1249.39" filterUnits="userSpaceOnUse" color-interpolation-filters="sRGB">
<feFlood flood-opacity="0" result="BackgroundImageFix"/>
<feBlend mode="normal" in="SourceGraphic" in2="BackgroundImageFix" result="shape"/>
<feGaussianBlur stdDeviation="108.832" result="effect1_foregroundBlur_29_4382"/>
</filter>
<clipPath id="clip0_29_4382">
<rect width="1397.36" height="213.486" fill="white" transform="translate(-19)"/>
</clipPath>
</defs>
</svg>
